<svg width="68" height="27" viewBox="0 0 68 27" fill="none" xmlns="http://www.w3.org/2000/svg">
<path d="M4.89386 26.7429H0L8.97794 0.364345H14.6112L23.6243 26.7429H18.7305L16.6004 20.2212H7.00632L4.89386 26.7429ZM8.23858 16.3955H15.3681L11.9002 5.75666H11.6889L8.23858 16.3955Z" fill="white"/>
<path d="M24.6383 26.7429V6.959H29.004V10.2381H29.2153C29.9018 7.96095 31.7326 6.66752 33.9331 6.66752C34.426 6.66752 35.1302 6.72217 35.5527 6.77682V11.0761C35.1478 10.9304 34.2148 10.8028 33.4754 10.7846C30.9757 10.8028 29.1449 12.5881 29.1449 15.0839V26.7429H24.6383Z" fill="white"/>
<path d="M47.0233 6.959V10.5296H43.2561V20.8041C43.2561 22.6987 44.1715 23.0813 45.2981 23.0995C45.8262 23.1177 46.7064 23.0631 47.2698 23.0266V26.8158C46.7416 26.9069 45.8791 27.0162 44.7348 26.998C41.3549 27.0162 38.7495 25.2856 38.7847 21.5692V10.5296H36.0385V6.959H38.7847V2.22251H43.2561V6.959H47.0233Z" fill="white"/>
<path d="M54.4803 14.9382V5.42875H59.0221C60.536 5.42875 62.0675 6.52178 62.0851 8.52568C62.0675 9.81911 61.4514 10.7482 60.5888 11.2765L62.402 14.9382H59.9022L58.4235 11.7319H56.7336V14.9382H54.4803ZM48.0725 10.311C48.0725 4.60897 52.5263 0 58.0362 0C63.5286 0 67.9824 4.60897 68 10.311C67.9824 15.9948 63.5286 20.6037 58.0362 20.6219C52.5263 20.6037 48.0725 15.9948 48.0725 10.311ZM50.6074 10.311C50.6074 14.5374 53.9346 17.9804 58.0362 17.9987C62.1379 17.9804 65.4474 14.5556 65.465 10.311C65.4474 6.06635 62.1203 2.62329 58.0362 2.62329C53.9346 2.62329 50.6074 6.06635 50.6074 10.311ZM56.7336 10.0559H58.3531C58.9869 10.0377 59.6734 9.52763 59.6558 8.52568C59.6734 7.54195 58.9869 7.15939 58.3883 7.14117H56.7336V10.0559Z" fill="white"/>
</svg>
